<?xml version="1.0" encoding="UTF-8"?>
<svg id="Layer_1" xmlns="http://www.w3.org/2000/svg" version="1.1" viewBox="0 0 155.91 127.56">
  <!-- Generator: Adobe Illustrator 29.8.0, SVG Export Plug-In . SVG Version: 2.1.1 Build 160)  -->
  <defs>
    <style>
      .st0 {
        fill: #f18322;
      }
    </style>
  </defs>
  <path class="st0" d="M145.69,55.67c-1.1-2.25-2.48-4.37-4.11-6.33-1.61-1.93-3.47-3.7-5.54-5.27-3.92-2.98-8.62-5.33-13.96-6.97-.91-.28-1.84-.54-2.78-.77.63-1.25,1.13-2.52,1.49-3.8.73-2.55.96-5.17.66-7.77-.27-2.41-.9-4.62-1.88-6.59-.99-1.99-2.34-3.74-4-5.19-2.68-2.33-6.23-3.57-10.28-3.57-1.57,0-2.81.18-3.42.3-4.6.78-9.12,1.82-13.44,3.07-4.42,1.29-8.5,2.77-12.12,4.42,0,0,0,0-.01,0-6.64,3.02-12.88,6.67-18.55,10.85-2.63,1.94-5.12,3.97-7.45,6.09-.23-.74-.52-1.46-.86-2.15-1.08-2.17-2.61-3.97-4.54-5.35h0c-1.62-1.17-3.48-2.02-5.53-2.55h0c-1.69-.44-3.48-.66-5.31-.66-3.05,0-5.79.56-8.16,1.66-2.29,1.07-4.23,2.49-5.75,4.22-1.48,1.68-2.59,3.56-3.28,5.58h0c-.64,1.85-.96,3.66-.96,5.38,0,2.17.36,4.22,1.08,6.11.26.69.57,1.36.93,2-.07.06-.13.11-.2.17,0,0,0,0-.01,0-1.99,1.75-3.4,4.02-4.08,6.54-.02.08-.04.17-.06.25-.52,2.18-1.14,4.63-1.84,7.28-.74,2.8-1.44,5.62-2.09,8.39-.68,2.88-1.26,5.71-1.73,8.42-.54,3.09-.8,5.79-.8,8.26,0,2.12.24,4.15.72,6.03.64,2.51,1.76,4.72,3.34,6.59,1.63,1.93,3.71,3.42,6.17,4.43,2.19.89,4.7,1.35,7.48,1.35s5.56-.47,8.44-1.41h0c1.99-.65,3.97-1.44,5.89-2.35,1.24,1.31,2.57,2.55,4,3.71,4.53,3.69,9.95,6.6,16.12,8.65,6.05,2.01,12.73,3.16,19.85,3.41.02,0,.04,0,.05,0h.35c1,.04,1.92.05,2.81.05,2.68,0,5.11-.13,7.65-.41,2.69-.3,5.56-.78,8.78-1.46.06-.01.11-.03.17-.04l3.75-.88c1.99-.47,3.8-1.48,5.23-2.94.44-.45.83-.93,1.18-1.44,1,.28,2.03.43,3.06.43,1.81,0,3.62-.45,5.23-1.29l2.17-1.14s0,0,0,0c4.19-2.2,8.06-4.7,11.49-7.44,3.48-2.78,6.53-5.81,9.06-9,2.64-3.33,4.72-6.85,6.18-10.46,1.56-3.84,2.41-7.78,2.53-11.69,0,0,0,0,0,0,.08-2.57-.14-5.12-.66-7.58-.52-2.47-1.35-4.86-2.45-7.12ZM25.57,37.9c.3-.88.8-1.71,1.48-2.49.68-.77,1.6-1.43,2.74-1.96,1.14-.53,2.56-.8,4.26-.8,1.06,0,2.07.12,3.01.36.94.24,1.76.62,2.46,1.12.7.5,1.25,1.16,1.66,1.98.41.82.62,1.79.62,2.92,0,1.03-.17,2.04-.5,3.01-.33.97-.87,1.84-1.6,2.6-.44.45-.94.86-1.51,1.21-.39.24-.8.45-1.25.64-1.11.47-2.44.71-3.99.71-2.68,0-4.65-.63-5.93-1.89-.29-.29-.55-.6-.78-.93-.76-1.12-1.14-2.49-1.14-4.11,0-.7.15-1.49.46-2.37ZM30.38,95.91c-1.96.64-3.82.96-5.59.96-1.58,0-2.91-.22-3.99-.66-1.08-.44-1.95-1.06-2.62-1.85-.67-.79-1.15-1.76-1.44-2.9-.29-1.14-.43-2.39-.43-3.76,0-1.92.22-4.14.66-6.68.44-2.54.98-5.17,1.62-7.89.64-2.72,1.31-5.43,2.03-8.14.71-2.71,1.35-5.2,1.89-7.48.21-.79.64-1.47,1.28-2.03.3-.26.61-.5.95-.71.38-.25.79-.47,1.22-.65.8-.35,1.64-.61,2.51-.78.87-.17,1.65-.25,2.35-.25,1.28,0,2.14.24,2.6.71.32.33.52.74.62,1.22.04.21.06.43.06.67,0,.21-.01.45-.04.71-.07.59-.2,1.31-.41,2.18-.3,1.26-.68,2.69-1.14,4.29-.46,1.6-.94,3.31-1.46,5.15-.52,1.84-1,3.68-1.46,5.52-.32,1.29-.6,2.57-.85,3.82-.1.53-.2,1.05-.29,1.57-.3,1.75-.46,3.32-.46,4.72s.15,2.46.46,3.26c.3.81.93,1.21,1.87,1.21.1,0,.19,0,.29,0,5.06-.08,5.97,5.12,5.55,5.41-.8.55-1.74.85-2.63,1.22-1.04.44-2.08.83-3.14,1.17ZM104.36,92.59s0,.04,0,.06c0,.01,0,.02,0,.04,0,.02,0,.05,0,.07,0,.01,0,.02,0,.03,0,.03-.01.07-.02.1l-1.77,8.33-.74,3.46-.11.51s-.02.08-.03.11c-.06.2-.16.38-.29.54-.03.03-.05.06-.08.09-.05.05-.1.1-.16.14-.14.11-.31.2-.48.25-.04.01-.07.02-.11.03l-3.75.88c-.17.04-.34.07-.5.11-.03,0-.06.01-.09.02-.16.03-.32.07-.48.1-.03,0-.06.01-.09.02-.16.03-.32.06-.48.1h-.01c-.16.03-.31.06-.47.09-.03,0-.05.01-.08.02-.15.03-.3.06-.45.09-.03,0-.06.01-.08.02-.15.03-.3.06-.45.08,0,0-.02,0-.03,0-.15.03-.29.05-.43.08-.02,0-.05,0-.07.01-.14.02-.29.05-.43.07-.03,0-.05,0-.08.01-.14.02-.29.05-.43.07h-.04c-.14.03-.27.05-.41.07-.02,0-.04,0-.06,0-.14.02-.27.04-.41.06-.03,0-.05,0-.08.01-.14.02-.27.04-.41.06-.01,0-.03,0-.04,0-.13.02-.26.04-.39.05-.02,0-.04,0-.04,0-.15.02-.28.04-.41.05-.03,0-.05,0-.08,0-.13.02-.26.03-.39.05h-.05c-.13.02-.25.03-.38.05h-.04c-.13.02-.26.03-.38.05-.02,0-.05,0-.07,0-.13.01-.25.03-.38.04-.02,0-.03,0-.05,0-.12.01-.25.02-.37.03,0,0-.02,0-.03,0-.13.01-.25.02-.38.03h-.07c-.12.02-.25.03-.37.03-.02,0-.04,0-.05,0-.12,0-.24.02-.36.03,0,0-.02,0-.02,0-.12,0-.25.02-.37.02-.02,0-.04,0-.07,0-.12,0-.24.01-.36.02-.02,0-.04,0-.06,0-.12,0-.24.01-.37.02h0c-.12,0-.25.01-.37.02h-.06c-.12,0-.24.01-.36.01,0,0-.04,0-.06,0-.25,0-.5.01-.74.02-.02,0-.04,0-.04,0-.14,0-.26,0-.38,0-.02,0-.04,0-.06,0-.25,0-.5,0-.75,0h-.05c-.2,0-.4,0-.6,0h-.03c-.2,0-.4,0-.6,0h-.02c-.2,0-.41,0-.61-.01h-.04c-.21,0-.41-.01-.62-.02h-.35c-2.13-.09-4.2-.25-6.2-.5-.67-.08-1.33-.18-1.98-.28-.25-.04-.49-.08-.73-.12-1.2-.2-2.37-.44-3.52-.7-1.1-.26-2.18-.54-3.24-.85-.25-.07-.5-.15-.75-.23-6.28-1.97-11.58-4.94-15.67-8.73-.14-.13-.28-.26-.42-.4-1.83-1.98-3.42-4.1-4.75-6.33-.13-.21-.25-.43-.38-.65-1.22-2.15-2.19-4.36-2.88-6.6-.08-.25-.15-.51-.22-.76-.56-2.43-.81-4.99-.73-7.66.01-.32.03-.63.04-.95.13-2.14.48-4.29,1.04-6.44.04-.17.09-.33.13-.5.11-.4.22-.79.34-1.19,0-.02.01-.04.02-.06.07-.24.15-.49.23-.73.22-.66.45-1.32.71-1.97.76-1.97,1.69-3.94,2.76-5.88,6.64-11.98,19.11-23.22,34.98-30.86.63-.3,1.27-.6,1.91-.9.09-.04.18-.08.27-.12.15-.07.3-.13.45-.2.3-.13.6-.26.91-.39.15-.06.31-.13.46-.19.27-.11.54-.22.82-.33,4.14-1.65,8.84-3.09,13.8-4.24.27-.06.55-.13.82-.19,1.92-.43,3.88-.81,5.85-1.15,0,0,.08-.02.22-.04h0s.04,0,.06,0h.01s.04,0,.04,0h.02s.02,0,.04,0h.01s.03,0,.04,0c0,0,.02,0,.02,0h.04s.02,0,.02,0h.05s.02,0,.02,0c.03,0,.05,0,.07,0,.01,0,.03,0,.04,0,.01,0,.02,0,.04,0,0,0,.02,0,.04,0,0,0,.03,0,.04,0h.04s.04,0,.04,0c.01,0,.03,0,.04,0,0,0,.03,0,.04,0h.04s.03,0,.03,0c.03,0,.04,0,.06,0,0,0,.03,0,.04,0,.02,0,.03,0,.05,0,0,0,.03,0,.04,0,0,0,.04,0,.06,0,0,0,.02,0,.04,0,.03,0,.06,0,.09,0,.01,0,.03,0,.04,0h.06s.03,0,.04,0h.05s.03,0,.05,0c0,0,.03,0,.05,0,.02,0,.03,0,.03,0,.03,0,.05,0,.06,0,0,0,.05,0,.08,0h.04s.05,0,.08,0c0,0,.03,0,.04,0,.03,0,.06,0,.09,0h.03s.07,0,.11,0h.01c.08,0,.17.01.26.02.01,0,.02,0,.02,0,.04,0,.07,0,.11,0,.01,0,.03,0,.04,0,.03,0,.06,0,.09,0,.01,0,.03,0,.04,0,.03,0,.06,0,.09,0,.02,0,.03,0,.05,0,.03,0,.06,0,.09.01.02,0,.03,0,.05,0,.03,0,.06,0,.09.01.01,0,.03,0,.04,0,.03,0,.06.01.09.02.01,0,.03,0,.04,0,.04,0,.08.01.11.02,0,0,.01,0,.02,0,.09.02.18.04.27.06.01,0,.02,0,.03,0,.03,0,.07.02.1.02.01,0,.03,0,.04.01.03,0,.06.02.09.02.02,0,.03,0,.05.01.03,0,.06.02.09.03.02,0,.03.01.05.02.03,0,.06.02.08.03.02,0,.03.01.05.02.03,0,.06.02.08.03.02,0,.03.01.05.02.03.01.06.02.09.03.01,0,.03.01.04.02.03.01.07.03.1.04.01,0,.02,0,.03.01.09.04.17.08.26.12.01,0,.02.01.04.02.03.01.06.03.09.05.01,0,.03.02.04.02.03.01.05.03.08.04.02,0,.03.02.05.03.03.01.05.03.07.04.02,0,.03.02.05.03.02.01.05.03.07.05.02.01.03.02.05.03.02.02.05.03.07.05.02.01.03.02.05.03.02.02.05.04.07.05.01.01.03.02.04.03.03.02.05.04.08.06.01,0,.02.02.03.03.04.03.07.06.11.09.47.41.9.89,1.28,1.44.22.33.43.69.61,1.08.17.37.32.77.46,1.19.02.08.05.16.07.24.09.33.17.68.24,1.04.01.07.02.14.04.21.03.21.06.43.09.65.03.26.05.52.06.79.01.26.01.52,0,.78,0,.09,0,.18-.01.27,0,.09-.01.17-.02.26,0,.1-.02.2-.03.29-.02.15-.04.3-.06.45-.03.21-.07.41-.12.62-.03.12-.05.24-.08.36-.12.47-.27.94-.45,1.41-.07.17-.14.35-.22.52s-.16.35-.24.52c-.13.26-.26.52-.41.78-.06.11-.12.22-.19.32-.19.32-.4.65-.63.97h0c-.07-.04-.14-.08-.2-.12-.01,0-.03-.02-.04-.02-.07-.04-.14-.07-.21-.11-.01,0-.03-.01-.04-.02-.07-.03-.14-.07-.21-.1,0,0-.01,0-.02,0-.07-.03-.15-.07-.23-.1-.02,0-.03-.01-.05-.02-.08-.03-.15-.06-.23-.09-.01,0-.02,0-.04-.01-.07-.03-.15-.05-.22-.08-.01,0-.02,0-.03-.01-.08-.03-.16-.05-.25-.08-.02,0-.04-.01-.05-.02-.08-.02-.17-.05-.25-.07,0,0-.02,0-.03,0-.08-.02-.16-.04-.25-.06-.01,0-.03,0-.04-.01-.09-.02-.18-.04-.26-.06-.02,0-.04,0-.06-.01-.09-.02-.18-.03-.28-.05h-.01c-.09-.02-.18-.03-.27-.04-.02,0-.04,0-.05,0-.09-.01-.19-.03-.28-.04-.02,0-.04,0-.04,0-.11-.01-.21-.02-.3-.03,0,0-.01,0-.02,0-.1,0-.2-.02-.3-.03,0,0-.04,0-.06,0-.1,0-.2-.01-.29-.02-.02,0-.04,0-.04,0-.11,0-.2-.01-.3-.02h-.04c-.1,0-.2,0-.3-.01-.02,0-.05,0-.07,0-.1,0-.2,0-.31,0h-.05c-.05,0-.1,0-.15,0-.04,0-.08,0-.12,0-.03,0-.06,0-.08,0-.11,0-.21,0-.32,0-.02,0-.04,0-.06,0-.09,0-.18,0-.27,0-.03,0-.06,0-.09,0-.11,0-.22,0-.32.01,0,0-.01,0-.02,0-.1,0-.21.01-.31.02-.03,0-.06,0-.1,0-.09,0-.19.01-.28.02,0,0-.04,0-.06,0-.11,0-.22.02-.33.03-.03,0-.06,0-.09,0-.09,0-.18.02-.27.02-.03,0-.06,0-.08,0-.11.01-.22.02-.33.03-.03,0-.05,0-.08,0-.09,0-.18.02-.27.03-.03,0-.06,0-.1.01-.11.01-.22.03-.33.04-.02,0-.04,0-.06,0-.1.01-.19.02-.29.04-.03,0-.07,0-.1.01-.1.01-.2.03-.3.04h-.04c-.11.02-.22.04-.34.06-.03,0-.07.01-.1.02-.09.01-.18.03-.27.04-.03,0-.05,0-.08.01-.11.02-.22.04-.33.05-.03,0-.06.01-.1.02-.09.01-.17.03-.26.05-.03,0-.06.01-.1.02-.11.02-.22.04-.33.06h-.08c-.09.03-.18.05-.27.06-.03,0-.07.01-.1.02-.11.02-.22.04-.33.06-.02,0-.03,0-.05,0-.1.02-.2.04-.29.06-.04,0-.07.01-.11.02-.09.02-.18.04-.27.06-.02,0-.04,0-.06.01-.11.02-.22.05-.32.07-.03,0-.07.01-.1.02-.08.02-.17.04-.25.06-.03,0-.06.01-.09.02-.11.02-.21.05-.32.07l-.09.02c-.08.02-.16.04-.24.06-.03,0-.07.02-.1.02-.1.02-.21.05-.31.07-.02,0-.05.01-.07.02-.08.02-.17.04-.25.06-.03,0-.07.02-.1.03-.09.02-.18.04-.27.07-.02,0-.04,0-.06.01-.1.02-.19.05-.29.07-.03,0-.07.02-.1.03-.08.02-.16.04-.23.06-.03,0-.05.01-.08.02-.1.03-.19.05-.29.08-.03,0-.06.02-.1.03-.07.02-.15.04-.22.06-.03,0-.06.02-.09.02-.09.03-.19.05-.28.08-.03,0-.05.01-.08.02-.07.02-.15.04-.22.06-.03,0-.06.02-.09.03-.09.03-.18.05-.27.08-.02,0-.04.01-.05.02-.08.02-.15.04-.23.06-.03,0-.06.02-.09.03-.07.02-.15.04-.22.06-.02,0-.04.01-.05.02-.09.03-.17.05-.26.08-.03,0-.06.02-.08.02-.07.02-.13.04-.19.06-.02,0-.05.01-.07.02-.08.02-.16.05-.24.07-.02,0-.05.01-.07.02-.06.02-.12.04-.18.06-.03,0-.05.02-.08.02-.08.02-.16.05-.23.07-.02,0-.03.01-.05.02-.06.02-.12.04-.18.06-.02,0-.05.01-.07.02-.07.02-.14.04-.21.07,0,0,0,0,0,0-.31.1-.61.2-.92.3-.86.29-1.74.6-2.61.93-.09.03-.18.07-.27.1h0c-.14.06-.29.11-.43.17-.13.05-.26.1-.39.16h0s0,0,0,0c-.12.05-.23.09-.35.14-.14.06-.28.11-.42.17-.18.07-.36.15-.53.22-1.17.49-2.32,1.02-3.45,1.57-.4.19-.79.39-1.18.59s-.78.4-1.17.61c-.64.34-1.28.7-1.91,1.06-.55.31-1.09.64-1.63.96-.12.08-.25.15-.37.23-.15.09-.3.19-.46.28-.09.06-.18.11-.27.17-.25.16-.51.33-.76.49-.12.08-.25.16-.37.24-.12.08-.24.16-.36.24-.23.15-.45.31-.68.46-.44.31-.88.62-1.31.93-.17.12-.33.24-.49.36-.1.08-.21.16-.31.23-.2.15-.4.3-.6.45-.12.09-.24.18-.36.28-.09.07-.19.15-.28.22h-.02c-.23.2-.46.38-.69.56-.08.06-.16.13-.24.19-.57.47-1.13.94-1.68,1.42-.05.04-.1.09-.14.13-.57.51-1.13,1.02-1.67,1.54-.02.02-.04.03-.05.05-2.93,2.8-5.43,5.77-7.41,8.81-.03.05-.06.1-.09.14-.16.24-.31.49-.46.73-.03.05-.06.1-.09.15-.22.36-.43.71-.63,1.07-.07.12-.13.24-.2.36-.02.03-.03.06-.05.08-.98,1.78-1.77,3.58-2.36,5.36h0c-.09.28-.18.55-.26.83-.04.15-.08.29-.12.44-.06.21-.11.43-.17.64-.06.24-.11.48-.16.72-.28,1.31-.44,2.62-.48,3.9,0,.11,0,.22,0,.33,0,.06,0,.13,0,.19,0,.04,0,.09,0,.13,0,.65.04,1.29.11,1.93.02.19.05.38.07.57.01.1.03.19.04.28.03.2.07.39.1.59.52,2.67,1.65,5.16,3.34,7.36.16.2.32.41.48.6.29.35.59.7.91,1.04,0,0,0,.01.02.02,0,0,0,0,0,0,.34.35.69.69,1.05,1.01.62.55,1.27,1.08,1.97,1.57,2.81,1.85,6.12,3.29,9.83,4.28.25.07.5.13.75.19.22.05.45.11.67.16.37.08.74.16,1.11.24.33.07.66.13.99.19,2.32.41,4.77.66,7.32.74.06,0,.12,0,.18,0,.17,0,.34,0,.5.01.13,0,.26,0,.39,0,.1,0,.2,0,.3,0h.02c.09,0,.18,0,.27,0,0,0,.03,0,.04,0,.21,0,.43,0,.64,0,.04,0,.07,0,.11,0,.03,0,.05,0,.08,0,.18,0,.37,0,.55-.01.03,0,.07,0,.1,0,.21,0,.42-.01.63-.02.03,0,.05,0,.08,0,.22,0,.44-.02.66-.03h0c.69-.04,1.35-.09,1.99-.15.18-.02.36-.03.53-.05.26-.03.52-.05.77-.08.1-.01.2-.02.3-.03,3.09-.36,5.49-.89,7.49-1.46.09-.02.17-.05.26-.08,1.33-.39,2.48-.79,3.54-1.17l1.47-.56.66-.25,2.46-.95h0s.06-.02.09-.03c0,0,.02,0,.02,0,.03,0,.06-.02.09-.03h0s.01,0,.02,0c.02,0,.04,0,.07-.01,0,0,.02,0,.02,0,.04,0,.07,0,.1-.01h.01s.06,0,.08,0c0,0,.01,0,.01,0,.03,0,.06,0,.08,0h.02s.06,0,.09,0c0,0,.01,0,.01,0,.03,0,.05,0,.08.01,0,0,.02,0,.03,0,.02,0,.04,0,.06.01.01,0,.02,0,.03,0,.02,0,.04.01.06.02.01,0,.02,0,.03.01.02,0,.04.02.06.02,0,0,.02,0,.02,0,.03.01.06.02.08.04,0,0,.01,0,.02,0,.02.01.04.02.06.03,0,0,.02.01.03.02.02,0,.03.02.05.03.01,0,.02.01.03.02.02.01.03.02.05.03,0,0,.02.01.03.02.02.01.03.03.05.04,0,0,.02.01.02.02.02.02.05.04.07.06,0,0,0,0,.01.01.02.02.03.03.05.05,0,0,.02.02.02.03.01.01.03.03.04.04,0,0,.02.02.02.03.01.02.02.03.03.05,0,0,.01.02.02.03.01.02.02.03.03.05,0,0,.01.02.02.03.02.03.03.05.04.08,0,0,0,.01,0,.02.01.02.02.05.03.07,0,.01,0,.02.01.03,0,.02.02.04.02.06,0,.01,0,.02.01.03,0,.02.01.04.02.06,0,.01,0,.02.01.03,0,.02.01.04.02.06,0,0,0,.02,0,.03,0,.03.01.06.02.09,0,0,0,0,0,0,0,.03,0,.06,0,.09,0,.01,0,.02,0,.03,0,.02,0,.04,0,.07,0,.01,0,.02,0,.04ZM137.03,80.19c-.11.23-.22.46-.33.68-.06.11-.12.23-.17.34-.05.1-.11.21-.17.31-.08.14-.16.29-.23.43-.06.11-.12.22-.19.33-.19.33-.39.67-.59,1-.07.11-.14.22-.21.33-.13.2-.26.41-.39.61s-.27.4-.41.61c-.14.2-.28.4-.43.6-4.19,5.81-10.56,11.13-18.64,15.37l-1.59.83-.58.3h0s-.07.04-.11.05c0,0-.01,0-.02,0-.03.02-.07.03-.1.04,0,0-.01,0-.02,0-.03.01-.07.02-.1.03,0,0,0,0-.01,0-.04.01-.07.02-.11.03h-.02s-.07.02-.1.03h-.02s-.07.01-.1.02h-.02s-.07,0-.1.01h-.02s-.07,0-.1,0h0s-.06,0-.1,0c0,0-.01,0-.01,0-.04,0-.07,0-.11,0,0,0-.01,0-.01,0-.04,0-.07,0-.1-.01h-.01s0,0,0,0c-.03,0-.06-.01-.09-.02h-.02s-.06-.02-.1-.03h0s-.06-.02-.09-.03h-.02s-.06-.03-.09-.04c0,0,0,0,0,0-.03-.01-.06-.03-.09-.04,0,0,0,0,0,0-.03-.02-.06-.03-.09-.05,0,0-.01,0-.02,0-.03-.02-.06-.03-.09-.05h0s-.06-.04-.08-.06c0,0-.01,0-.02-.01-.03-.02-.05-.04-.08-.06,0,0,0,0-.01,0-.02-.02-.05-.04-.07-.06,0,0,0,0-.01-.01-.02-.02-.05-.04-.07-.07,0,0,0,0-.01-.01-.02-.02-.05-.05-.07-.07h0s-.05-.05-.07-.08c0,0,0-.01-.01-.02-.02-.03-.04-.05-.06-.08,0,0,0,0,0,0-.02-.03-.04-.05-.06-.08,0,0,0,0,0-.01-.02-.03-.04-.06-.05-.08,0,0,0-.01,0-.02-.02-.03-.03-.05-.05-.08,0,0,0,0,0,0-.02-.03-.03-.06-.05-.09,0,0,0-.01,0-.02-.01-.03-.03-.06-.04-.09,0,0,0,0,0,0-.01-.03-.02-.06-.03-.09,0,0,0-.01,0-.02-.01-.03-.02-.06-.03-.1,0,0,0-.01,0-.02,0-.03-.02-.06-.02-.09,0,0,0,0,0-.01,0-.03-.01-.07-.02-.1,0,0,0-.01,0-.02,0-.03,0-.07-.01-.11h0s0-.07,0-.11c0,0,0-.01,0-.02,0-.04,0-.07,0-.11,0,0,0-.01,0-.02,0-.03,0-.07,0-.1,0,0,0-.01,0-.02,0-.04,0-.07.01-.11,0,0,0-.02,0-.02,0-.04.01-.08.02-.11l2.47-11.61.15-.73.42-1.96s.02-.07.03-.11c.02-.07.04-.13.06-.2,0-.01,0-.02.01-.04.03-.07.06-.13.09-.2.03-.06.06-.11.1-.16.03-.04.05-.08.08-.12.09-.11.19-.22.29-.31,3.3-2.86,5.66-5.98,6.84-9,.08-.2.15-.4.22-.6.08-.23.15-.46.21-.68.06-.23.12-.45.17-.68.06-.26.11-.51.14-.77.06-.42.1-.84.11-1.26.02-.57,0-1.12-.06-1.66,0-.05-.01-.1-.02-.15-.01-.11-.03-.22-.04-.33-.01-.09-.03-.17-.04-.26-.45-2.67-1.83-4.86-4.25-6.77-1.53-1.2-3.44-2.21-5.62-3-.55-.2-1.11-.38-1.69-.55-.19-.05-.38-.11-.57-.16-.28-.08-.57-.15-.85-.22-.19-.05-.38-.09-.58-.13-.32-.07-.65-.14-.98-.2-.33-.06-.67-.12-1-.17-.84-.13-1.71-.24-2.59-.31-.31-.03-.61-.05-.92-.07-.4-.02-.8-.04-1.21-.05h0c-.17,0-.35,0-.52-.01-.04,0-.08,0-.12,0-.17,0-.34,0-.51,0h-.02s-.03,0-.05,0c-.2,0-.41,0-.61,0h-.02c-.21,0-.41,0-.62.02-.03,0-.06,0-.08,0-.2,0-.39.02-.59.02-.03,0-.07,0-.1,0-.2.01-.39.02-.59.03-.03,0-.07,0-.1,0-.2.01-.4.03-.6.04,0,0-.04,0-.07,0-.21.02-.41.04-.62.06h0c-.21.02-.42.04-.62.07-.02,0-.05,0-.07,0-.2.02-.39.05-.59.07-.03,0-.06,0-.1.01-.19.03-.39.05-.58.08-.03,0-.06,0-.09.01-.2.03-.39.06-.59.09-.02,0-.04,0-.07.01-.2.03-.41.07-.61.11h0c-.2.04-.4.08-.61.12-.02,0-.05,0-.07.01-.19.04-.38.08-.57.12-.03,0-.06.01-.09.02-.19.04-.37.08-.56.13-.03,0-.06.02-.09.02-.19.05-.38.09-.56.14-.02,0-.05.01-.07.02-.2.05-.39.1-.58.16h0s0,0,0,0h0s-1.26.29-2.09.53c-.02,0-.05.01-.07.02-.03,0-.06.02-.09.03-.08.02-.16.05-.24.07-.07.02-.14.04-.21.06-.49.14-1,.29-1.43.42-.27.08-.51.21-.72.38-.03.02-.06.05-.09.08-.07.07-.14.14-.2.21-.06.07-.12.15-.17.24-.03.04-.05.08-.07.13-.07.13-.12.27-.16.41,0,0-3.44,19.69-4.26,23.02,0,0,0,.02-.01.04,0,0,0,.01,0,.02,0,0,0,.02,0,.03,0,.02-.01.04-.02.06,0,.01,0,.02-.01.03-.03.09-.08.22-.13.37-.2.49-.56,1.24-1.15,1.95-.73.87-1.8,1.68-3.35,1.89-.02,0-.05,0-.07.01-.04,0-.08.01-.13.02h0c-.05,0-.1.01-.16.02,0,0,0,0,0,0-.06,0-.12.01-.18.02h-.01c-.06,0-.13.02-.2.02,0,0,0,0,0,0-.04,0-.07,0-.1.01h0s-.07,0-.11.01c0,0-.01,0-.01,0-.04,0-.07,0-.11.01h0s-.07,0-.11.01c0,0-.01,0-.02,0-.03,0-.07,0-.1,0h-.01s-.08,0-.11,0h-.02s-.07,0-.1,0c0,0-.01,0-.02,0-.04,0-.08,0-.11,0h-.02s-.07,0-.1,0c0,0-.01,0-.02,0-.04,0-.08,0-.11,0h-.02s-.07,0-.1,0h-.02s-.08,0-.11,0h-.01s-.06,0-.06,0c-.06,0-.1,0-.14,0h-.04s-.1,0-.14,0c-.01,0-.02,0-.02,0-.05,0-.08,0-.12,0,0,0-.03,0-.05,0-.03,0-.07,0-.1,0-.01,0-.03,0-.03,0-.06,0-.1-.01-.14-.02,0,0-.01,0-.01,0-.04,0-.08-.01-.11-.02-.01,0-.03,0-.04,0-.03,0-.06-.01-.08-.02-.01,0-.02,0-.04,0-.04,0-.07-.02-.11-.03h0c-.12-.01-.24-.03-.36-.05h-.02s-.08-.02-.12-.02c-.21-.03-.4-.07-.6-.11-.02,0-.03,0-.04-.01-.1-.02-.2-.04-.29-.07-.04,0-.08-.02-.12-.03-.07-.02-.14-.03-.2-.05-.04-.01-.07-.02-.11-.03-.07-.02-.13-.04-.2-.06-.04-.01-.07-.02-.11-.03-.06-.02-.13-.04-.19-.06-.05-.02-.1-.04-.15-.05-.04-.02-.09-.03-.13-.05-.06-.02-.12-.05-.18-.07-.03-.01-.06-.02-.09-.04-.06-.02-.11-.05-.17-.07-.03-.01-.05-.02-.08-.03-1.81-.8-2.56-1.84-2.56-1.84,0,0,.51-.59,1.19-1.72.5-.82.83-1.99,1.18-3.41.05-.2.1-.41.15-.62.06-.23.12-.47.18-.71.04-.16.08-.32.12-.49.04-.17.09-.33.13-.5.07-.25.14-.51.21-.78,0-.02.01-.04.02-.07.02-.06.04-.14.06-.24,0-.03.01-.05.02-.08.02-.09.05-.19.08-.31.02-.07.03-.13.05-.21.03-.12.06-.25.1-.4.07-.27.14-.58.22-.93.04-.17.08-.35.13-.54.03-.11.05-.23.08-.35.06-.27.13-.55.2-.85.06-.27.13-.55.19-.84.02-.1.04-.19.07-.29.05-.23.1-.46.16-.69,1.35-5.91,3.3-14.7,4.29-18.62.29-1.13.48-1.85.52-1.94.02-.04.04-.09.06-.13.06-.13.12-.26.19-.38.1-.19.2-.37.3-.53.06-.07.12-.14.18-.2.03-.03.06-.06.09-.08.21-.19.46-.34.74-.42l2.31-.95,1.62-.63,6.57-2.05s.03,0,.05-.01c.14-.04.28-.09.43-.13.01,0,.02,0,.04-.01.06-.02.12-.04.18-.05.11-.03.22-.06.33-.1.07-.02.14-.04.21-.06.1-.03.2-.06.31-.08.07-.02.15-.04.22-.06.1-.03.2-.05.3-.08.08-.02.15-.04.23-.06.1-.03.2-.05.3-.08.08-.02.15-.04.23-.06.1-.02.2-.05.3-.07.08-.02.15-.04.23-.05.1-.02.2-.05.31-.07.07-.02.15-.03.22-.05.11-.02.22-.05.32-.07.07-.02.14-.03.21-.05.12-.03.24-.05.36-.08.06-.01.11-.02.17-.04.18-.04.36-.07.54-.11,0,0,.02,0,.03,0,.17-.03.34-.07.51-.1.06-.01.12-.02.18-.03.12-.02.24-.04.37-.06.07-.01.14-.02.21-.04.11-.02.22-.04.34-.06.07-.01.15-.02.22-.04.11-.02.22-.03.32-.05.08-.01.15-.02.23-.03.11-.02.21-.03.32-.05.08-.01.15-.02.23-.03.11-.01.22-.03.32-.04.08-.01.15-.02.23-.03.11-.01.22-.03.33-.04.07,0,.15-.02.22-.03.12-.01.23-.03.35-.04.07,0,.14-.02.2-.02.13-.01.27-.03.4-.04.05,0,.1-.01.16-.02.19-.02.37-.04.56-.05h.02c.18-.02.36-.03.53-.05.06,0,.12,0,.17-.01.13,0,.26-.02.38-.03.07,0,.14,0,.21-.01.12,0,.23-.02.35-.02.07,0,.15,0,.22-.01.11,0,.23-.01.34-.02.08,0,.15,0,.23-.01.11,0,.22-.01.33-.02.08,0,.16,0,.23,0,.11,0,.22,0,.33-.01.08,0,.15,0,.23,0,.11,0,.23,0,.34,0,.07,0,.15,0,.22,0,.12,0,.24,0,.36,0,.07,0,.13,0,.2,0,.14,0,.28,0,.42,0,.05,0,.1,0,.15,0,.18,0,.35,0,.53,0,.04,0,.09,0,.13,0,.14,0,.28,0,.42,0,.05,0,.1,0,.14,0,.18,0,.35,0,.53.01,10.06.3,18.98,3.04,25.12,7.72,3.18,2.42,5.59,5.37,7.13,8.7.36.77.67,1.55.93,2.36.05.15.1.3.14.45.69,2.27,1,4.68.93,7.17-.09,2.97-.78,5.94-2,8.86-.17.42-.36.83-.56,1.24Z"/>
</svg>